<?xml version="1.0" encoding="windows-1252" standalone="no"?>
<svg xmlns="http://www.w3.org/2000/svg" xmlns:xlink="http://www.w3.org/1999/xlink" contentStyleType="text/css" height="714px" preserveAspectRatio="none" style="width:2295px;height:714px;background:#FFFFFF;" version="1.1" viewBox="0 0 2295 714" width="2295px" zoomAndPan="magnify"><defs/><g><!--cluster GitHub--><g id="cluster_GitHub"><path d="M32.3772,160.584 C36.9286,151.7728 43.8295,149.5269 50.7316,158.1025 C55.3853,149.9274 60.3572,150.4857 65.7324,157.3845 C69.6046,148.7187 78.0089,146.7546 83.3877,155.8903 C87.0737,146.0082 94.1535,144.5249 100.9715,152.8686 C105.5465,143.6703 113.2656,143.7835 118.4888,152.2248 C122.4194,143.7456 130.3961,142.5501 135.5047,151.0437 C138.9938,141.6632 147.3657,142.1796 152.6691,149.1378 C159.2475,142.6248 164.7403,141.6008 169.1776,151.316 C175.4618,145.3654 182.234,146.2231 186.1556,154.1968 C190.1501,145.8542 196.608,146.0065 201.6607,153.1363 C207.1959,145.5306 214.6972,146.9501 218.4773,155.0193 C223.6008,148.0064 232.0735,147.5991 235.2512,157.0069 C241.2496,148.3565 248.1771,149.6344 253.9923,157.2184 C264.8384,151.0429 272.6887,151.9481 275.8395,165.6684 C276.8096,165.8617 277.1613,166.597 276.532,167.4218 C283.5931,171.9597 284.2385,178.0696 277.7104,183.5975 C286.8649,189.2719 288.9275,196.4514 279.3045,203.6207 C289.1527,207.4061 289.6507,214.1263 281.9237,220.6198 C289.8751,227.2919 291.047,233.4816 281.2618,239.533 C289.998,243.077 289.5855,250.3662 283.0374,255.5994 C292.2227,260.8045 292.2138,269.2729 283.3831,274.8023 C293.0174,280.8697 292.0521,287.3822 283.0486,293.1089 C289.5951,298.8557 289.1411,305.9298 281.0261,309.9118 C288.086,316.0316 289.2309,321.4061 279.9332,326.4445 C288.0511,332.2818 288.6272,339.2913 279.7797,344.9882 C288.0597,350.1548 286.6261,358.2466 279.0713,362.7827 C285.4596,373.2435 283.3331,384.5436 268.8395,385.6684 C270.5519,386.2061 270.8592,387.0892 269.6589,388.4767 C264.3837,397.4444 258.1203,397.2638 252.6991,388.6174 C248.1249,397.67 240.7223,398.266 235.2216,389.5275 C230.0144,397.5264 224.5265,397.4506 220.0039,388.898 C214.4148,395.8313 208.4318,395.7621 203.4476,388.2067 C198.5742,396.9284 192.1911,396.7537 186.1782,389.4333 C182.357,399.2696 176.5448,400.296 169.63,392.305 C164.5302,400.7439 156.7795,400.7357 151.5219,392.4762 C145.1039,400.1503 138.2355,399.2116 134.6821,389.6737 C129.7835,397.7605 121.9229,397.0896 117.9357,388.7449 C113.4349,396.7198 105.7815,395.566 101.6614,388.3374 C96.3253,396.4559 88.9999,396.9177 83.3667,388.6695 C78.3746,396.8039 72.0537,396.9693 66.7778,388.9612 C59.6675,397.2771 52.9766,396.8903 48.3986,386.4763 C36.5012,397.1165 28.0521,392.2002 23.8395,378.6684 C26.2153,378.5087 26.5328,379.641 26.0049,381.6151 C16.0315,377.1771 15.0563,369.0698 24.0005,362.634 C17.2848,357.0803 16.9921,351.0825 24.3219,345.7969 C14.4353,339.6409 13.4508,332.689 23.2939,325.5321 C15.7261,321.1684 16.3287,313.5768 23.3847,309.2949 C15.7285,302.8929 16.87,297.4704 24.7365,292.3034 C14.7925,287.0223 15.8996,279.5736 24.579,274.1309 C17.0104,268.9155 14.6919,263.2017 23.6959,257.1256 C16.8096,251.2516 15.6931,242.2739 26.0962,238.6456 C16.9756,232.5632 17.1899,227.082 26.5269,221.4622 C17.9244,216.0684 14.9256,210.5619 24.1837,202.9119 C15.1412,196.7351 16.4619,190.4362 24.8306,184.8841 C12.7509,173.0984 14.6652,163.978 30.8395,158.6684 C32.422,158.4946 32.8847,159.0802 32.3772,160.584 " fill="none" style="stroke:#696969;stroke-width:1.0;"/><text fill="#000000" font-family="sans-serif" font-size="14" font-weight="bold" lengthAdjust="spacing" textLength="56" x="121.8395" y="176.6636">GitHub</text></g><!--cluster AWS EKS Cluster--><g id="cluster_AWS EKS Cluster"><path d="M532.7615,88.2336 C568.1984,30.0888 611.4535,36.0122 646.8513,88.274 C683.9344,32.3732 741.0857,15.1045 779.9694,86.3895 C806.8461,24.6625 847.2791,27.8332 886.2714,74.5087 C923.9938,13.8505 976.6259,14.2598 1013.0145,75.8911 C1044.078,16.131 1093.7493,12.8522 1129.425,71.3509 C1160.2279,19.675 1217.5609,16.2895 1249.8118,69.6919 C1287.4627,8.204 1344.2775,5.0062 1377.5372,73.9908 C1416.7942,7.7386 1456.025,17.5392 1501.0863,67.838 C1551.1137,13.8392 1587.0359,15.824 1619.2152,84.9605 C1649.9962,36.3926 1687.4164,22.85 1727.9539,74.3598 C1774.7051,23.4062 1823.8177,20.6365 1861.8656,84.5097 C1906.1263,30.1828 1943.492,29.0334 1980.5692,91.7924 C2012.155,33.5701 2053.529,26.9928 2094.748,82.0858 C2122.7966,21.585 2176.2708,23.3109 2206.8395,79.6684 C2215.1264,84.4176 2215.6512,90.8718 2208.5367,97.1188 C2273.9302,121.4578 2276.7502,175.6313 2223.3376,214.9001 C2277.0981,255.6586 2288.0234,318.6598 2214.9506,351.6389 C2281.6583,388.4524 2275.3158,454.6003 2214.3368,490.8509 C2278.1976,532.3122 2259.8875,591.2611 2199.8395,618.6684 C2215.7247,614.3986 2224.5097,624.5351 2217.9703,639.6463 C2170.1286,691.9471 2109.2345,698.8685 2081.2633,619.081 C2046.611,679.1353 2004.6204,668.3581 1968.5658,620.546 C1944.2913,679.0359 1901.6826,678.3921 1860.6244,639.0673 C1827.483,697.0478 1763.4424,707.5463 1731.1961,638.1577 C1685.0957,698.9477 1640.0986,677.8008 1608.8608,622.4962 C1570.828,678.4385 1538.6532,665.2201 1502.6563,620.3514 C1469.7947,688.979 1418.953,692.2436 1375.0595,631.2073 C1333.0506,687.4982 1293.789,694.4347 1253.1318,629.8439 C1223.8064,686.7803 1163.4725,705.4027 1125.7425,638.4887 C1091.2123,685.9416 1046.0818,671.2621 1023.0452,625.7869 C986.4326,697.5508 934.7713,698.8442 886.1782,638.1678 C848.2061,676.4579 815.8346,677.0768 785.8042,628.944 C742.547,690.586 699.6972,677.7146 666.0719,619.3354 C619.2646,693.9587 557.8517,686.7386 518.8395,611.6684 C520.9902,610.8312 522.056,611.5432 522.1788,613.8336 C475.7223,575.208 477.7174,531.1225 529.0918,498.3533 C462.4563,457.3717 462.1978,403.8503 521.033,355.7767 C453.274,320.3109 448.3555,250.3678 520.7154,214.5868 C458.7943,165.7411 451.6087,116.5982 525.8395,72.6684 C535.6669,73.3502 539.3947,80.2318 532.7615,88.2336 " fill="none" style="stroke:#696969;stroke-width:1.0;"/><text fill="#000000" font-family="sans-serif" font-size="14" font-weight="bold" lengthAdjust="spacing" textLength="133" x="1296.3395" y="90.6636">AWS EKS Cluster</text></g><!--cluster Namespace: steve--><g id="cluster_Namespace: steve"><path d="M538.3395,107.6684 L684.3395,107.6684 A5.25,5.25 0 0 1 687.8395,111.1684 L694.8395,129.9653 L2187.3395,129.9653 A3.5,3.5 0 0 1 2190.8395,133.4653 L2190.8395,599.1684 A3.5,3.5 0 0 1 2187.3395,602.6684 L538.3395,602.6684 A3.5,3.5 0 0 1 534.8395,599.1684 L534.8395,111.1684 A3.5,3.5 0 0 1 538.3395,107.6684 " fill="none" style="stroke:#696969;stroke-width:1.0;"/><line style="stroke:#696969;stroke-width:1.0;" x1="534.8395" x2="694.8395" y1="129.9653" y2="129.9653"/><text fill="#000000" font-family="sans-serif" font-size="14" font-weight="bold" lengthAdjust="spacing" textLength="147" x="538.8395" y="122.6636">Namespace: steve</text></g><!--cluster Twoge Flask App--><g id="cluster_Twoge Flask App"><rect fill="none" height="282" rx="3.5" ry="3.5" style="stroke:#696969;stroke-width:1.0;" width="310" x="1367.8395" y="296.6684"/><path d="M1513.8395,296.6684 L1513.8395,305.9653 L1503.8395,315.9653 L1367.8395,315.9653 " fill="none" style="stroke:#696969;stroke-width:1.0;"/><text fill="#000000" font-family="sans-serif" font-size="14" font-weight="bold" lengthAdjust="spacing" textLength="136" x="1370.8395" y="310.6636">Twoge Flask App</text></g><!--cluster PostgreSQL--><g id="cluster_PostgreSQL"><path d="M1391.8395,452.6684 C1391.8395,442.6684 1522.8395,442.6684 1522.8395,442.6684 C1522.8395,442.6684 1653.8395,442.6684 1653.8395,452.6684 L1653.8395,544.6684 C1653.8395,554.6684 1522.8395,554.6684 1522.8395,554.6684 C1522.8395,554.6684 1391.8395,554.6684 1391.8395,544.6684 L1391.8395,452.6684 " fill="#00FFFF" style="stroke:#454645;stroke-width:1.0;"/><path d="M1391.8395,452.6684 C1391.8395,462.6684 1522.8395,462.6684 1522.8395,462.6684 C1522.8395,462.6684 1653.8395,462.6684 1653.8395,452.6684 " fill="none" style="stroke:#454645;stroke-width:1.0;"/><text fill="#454645" font-family="sans-serif" font-size="14" font-weight="bold" lengthAdjust="spacing" textLength="94" x="1475.8395" y="477.6636">PostgreSQL</text></g><!--cluster Services--><g id="cluster_Services"><rect fill="none" height="97" rx="3.5" ry="3.5" style="stroke:#696969;stroke-width:1.0;" width="461" x="1537.8395" y="150.6684"/><path d="M1614.8395,150.6684 L1614.8395,159.9653 L1604.8395,169.9653 L1537.8395,169.9653 " fill="none" style="stroke:#696969;stroke-width:1.0;"/><text fill="#000000" font-family="sans-serif" font-size="14" font-weight="bold" lengthAdjust="spacing" textLength="67" x="1540.8395" y="164.6636">Services</text></g><!--cluster Storage--><g id="cluster_Storage"><rect fill="none" height="243" rx="3.5" ry="3.5" style="stroke:#696969;stroke-width:1.0;" width="144" x="2022.8395" y="150.6684"/><path d="M2096.8395,150.6684 L2096.8395,159.9653 L2086.8395,169.9653 L2022.8395,169.9653 " fill="none" style="stroke:#696969;stroke-width:1.0;"/><text fill="#000000" font-family="sans-serif" font-size="14" font-weight="bold" lengthAdjust="spacing" textLength="64" x="2025.8395" y="164.6636">Storage</text></g><!--cluster Configuration & Secrets--><g id="cluster_Configuration &amp; Secrets"><rect fill="none" height="97" rx="3.5" ry="3.5" style="stroke:#696969;stroke-width:1.0;" width="713" x="800.8395" y="150.6684"/><path d="M1005.8395,150.6684 L1005.8395,159.9653 L995.8395,169.9653 L800.8395,169.9653 " fill="none" style="stroke:#696969;stroke-width:1.0;"/><text fill="#000000" font-family="sans-serif" font-size="14" font-weight="bold" lengthAdjust="spacing" textLength="195" x="803.8395" y="164.6636">Configuration &amp; Secrets</text></g><!--cluster Quotas--><g id="cluster_Quotas"><rect fill="none" height="243" rx="3.5" ry="3.5" style="stroke:#696969;stroke-width:1.0;" width="218" x="558.8395" y="150.6684"/><path d="M627.8395,150.6684 L627.8395,159.9653 L617.8395,169.9653 L558.8395,169.9653 " fill="none" style="stroke:#696969;stroke-width:1.0;"/><text fill="#000000" font-family="sans-serif" font-size="14" font-weight="bold" lengthAdjust="spacing" textLength="59" x="561.8395" y="164.6636">Quotas</text></g><!--entity "GitHub Action"--><g id="elem_&quot;GitHub Action&quot;"><rect fill="#F1F1F1" height="46.2969" rx="3.5" ry="3.5" style="stroke:#181818;stroke-width:0.5;" width="155" x="72.3395" y="185.6684"/><rect fill="#F1F1F1" height="10" style="stroke:#181818;stroke-width:0.5;" width="15" x="207.3395" y="190.6684"/><rect fill="#F1F1F1" height="2" style="stroke:#181818;stroke-width:0.5;" width="4" x="205.3395" y="192.6684"/><rect fill="#F1F1F1" height="2" style="stroke:#181818;stroke-width:0.5;" width="4" x="205.3395" y="196.6684"/><text fill="#000000" font-family="sans-serif" font-size="14" lengthAdjust="spacing" textLength="115" x="87.3395" y="218.6636">"GitHub Action"</text></g><!--entity "DockerHub: twoge:latest"--><g id="elem_&quot;DockerHub: twoge:latest&quot;"><rect fill="#F1F1F1" height="46.2969" rx="3.5" ry="3.5" style="stroke:#181818;stroke-width:0.5;" width="235" x="32.3395" y="331.6684"/><rect fill="#F1F1F1" height="10" style="stroke:#181818;stroke-width:0.5;" width="15" x="247.3395" y="336.6684"/><rect fill="#F1F1F1" height="2" style="stroke:#181818;stroke-width:0.5;" width="4" x="245.3395" y="338.6684"/><rect fill="#F1F1F1" height="2" style="stroke:#181818;stroke-width:0.5;" width="4" x="245.3395" y="342.6684"/><text fill="#000000" font-family="sans-serif" font-size="14" lengthAdjust="spacing" textLength="195" x="47.3395" y="364.6636">"DockerHub: twoge:latest"</text></g><!--entity "twoge-deployment.yml"--><g id="elem_&quot;twoge-deployment.yml&quot;"><rect fill="#F1F1F1" height="46.2969" rx="3.5" ry="3.5" style="stroke:#181818;stroke-width:0.5;" width="210" x="1400.8395" y="331.6684"/><rect fill="#F1F1F1" height="10" style="stroke:#181818;stroke-width:0.5;" width="15" x="1590.8395" y="336.6684"/><rect fill="#F1F1F1" height="2" style="stroke:#181818;stroke-width:0.5;" width="4" x="1588.8395" y="338.6684"/><rect fill="#F1F1F1" height="2" style="stroke:#181818;stroke-width:0.5;" width="4" x="1588.8395" y="342.6684"/><text fill="#000000" font-family="sans-serif" font-size="14" lengthAdjust="spacing" textLength="170" x="1415.8395" y="364.6636">twoge-deployment.yml</text></g><!--entity "postgres-deployment.yml"--><g id="elem_&quot;postgres-deployment.yml&quot;"><rect fill="#F1F1F1" height="46.2969" rx="3.5" ry="3.5" style="stroke:#181818;stroke-width:0.5;" width="229" x="1408.3395" y="492.6684"/><rect fill="#F1F1F1" height="10" style="stroke:#181818;stroke-width:0.5;" width="15" x="1617.3395" y="497.6684"/><rect fill="#F1F1F1" height="2" style="stroke:#181818;stroke-width:0.5;" width="4" x="1615.3395" y="499.6684"/><rect fill="#F1F1F1" height="2" style="stroke:#181818;stroke-width:0.5;" width="4" x="1615.3395" y="503.6684"/><text fill="#000000" font-family="sans-serif" font-size="14" lengthAdjust="spacing" textLength="189" x="1423.3395" y="525.6636">postgres-deployment.yml</text></g><!--entity "twoge-service.yml"--><g id="elem_&quot;twoge-service.yml&quot;"><rect fill="#F1F1F1" height="46.2969" rx="3.5" ry="3.5" style="stroke:#181818;stroke-width:0.5;" width="187" x="1554.3395" y="185.6684"/><rect fill="#F1F1F1" height="10" style="stroke:#181818;stroke-width:0.5;" width="15" x="1721.3395" y="190.6684"/><rect fill="#F1F1F1" height="2" style="stroke:#181818;stroke-width:0.5;" width="4" x="1719.3395" y="192.6684"/><rect fill="#F1F1F1" height="2" style="stroke:#181818;stroke-width:0.5;" width="4" x="1719.3395" y="196.6684"/><text fill="#000000" font-family="sans-serif" font-size="14" lengthAdjust="spacing" textLength="147" x="1569.3395" y="218.6636">"twoge-service.yml"</text></g><!--entity "postgres-service.yml"--><g id="elem_&quot;postgres-service.yml&quot;"><rect fill="#F1F1F1" height="46.2969" rx="3.5" ry="3.5" style="stroke:#181818;stroke-width:0.5;" width="206" x="1776.8395" y="185.6684"/><rect fill="#F1F1F1" height="10" style="stroke:#181818;stroke-width:0.5;" width="15" x="1962.8395" y="190.6684"/><rect fill="#F1F1F1" height="2" style="stroke:#181818;stroke-width:0.5;" width="4" x="1960.8395" y="192.6684"/><rect fill="#F1F1F1" height="2" style="stroke:#181818;stroke-width:0.5;" width="4" x="1960.8395" y="196.6684"/><text fill="#000000" font-family="sans-serif" font-size="14" lengthAdjust="spacing" textLength="166" x="1791.8395" y="218.6636">"postgres-service.yml"</text></g><!--entity "pv.yml"--><g id="elem_&quot;pv.yml&quot;"><rect fill="#F1F1F1" height="46.2969" rx="3.5" ry="3.5" style="stroke:#181818;stroke-width:0.5;" width="103" x="2043.3395" y="185.6684"/><rect fill="#F1F1F1" height="10" style="stroke:#181818;stroke-width:0.5;" width="15" x="2126.3395" y="190.6684"/><rect fill="#F1F1F1" height="2" style="stroke:#181818;stroke-width:0.5;" width="4" x="2124.3395" y="192.6684"/><rect fill="#F1F1F1" height="2" style="stroke:#181818;stroke-width:0.5;" width="4" x="2124.3395" y="196.6684"/><text fill="#000000" font-family="sans-serif" font-size="14" lengthAdjust="spacing" textLength="63" x="2058.3395" y="218.6636">"pv.yml"</text></g><!--entity "pvc.yml"--><g id="elem_&quot;pvc.yml&quot;"><rect fill="#F1F1F1" height="46.2969" rx="3.5" ry="3.5" style="stroke:#181818;stroke-width:0.5;" width="111" x="2039.3395" y="331.6684"/><rect fill="#F1F1F1" height="10" style="stroke:#181818;stroke-width:0.5;" width="15" x="2130.3395" y="336.6684"/><rect fill="#F1F1F1" height="2" style="stroke:#181818;stroke-width:0.5;" width="4" x="2128.3395" y="338.6684"/><rect fill="#F1F1F1" height="2" style="stroke:#181818;stroke-width:0.5;" width="4" x="2128.3395" y="342.6684"/><text fill="#000000" font-family="sans-serif" font-size="14" lengthAdjust="spacing" textLength="71" x="2054.3395" y="364.6636">"pvc.yml"</text></g><!--entity "twoge-configmap.yml"--><g id="elem_&quot;twoge-configmap.yml&quot;"><rect fill="#F1F1F1" height="46.2969" rx="3.5" ry="3.5" style="stroke:#181818;stroke-width:0.5;" width="213" x="1060.3395" y="185.6684"/><rect fill="#F1F1F1" height="10" style="stroke:#181818;stroke-width:0.5;" width="15" x="1253.3395" y="190.6684"/><rect fill="#F1F1F1" height="2" style="stroke:#181818;stroke-width:0.5;" width="4" x="1251.3395" y="192.6684"/><rect fill="#F1F1F1" height="2" style="stroke:#181818;stroke-width:0.5;" width="4" x="1251.3395" y="196.6684"/><text fill="#000000" font-family="sans-serif" font-size="14" lengthAdjust="spacing" textLength="173" x="1075.3395" y="218.6636">"twoge-configmap.yml"</text></g><!--entity "twoge-secrets.yml"--><g id="elem_&quot;twoge-secrets.yml&quot;"><rect fill="#F1F1F1" height="46.2969" rx="3.5" ry="3.5" style="stroke:#181818;stroke-width:0.5;" width="189" x="1308.3395" y="185.6684"/><rect fill="#F1F1F1" height="10" style="stroke:#181818;stroke-width:0.5;" width="15" x="1477.3395" y="190.6684"/><rect fill="#F1F1F1" height="2" style="stroke:#181818;stroke-width:0.5;" width="4" x="1475.3395" y="192.6684"/><rect fill="#F1F1F1" height="2" style="stroke:#181818;stroke-width:0.5;" width="4" x="1475.3395" y="196.6684"/><text fill="#000000" font-family="sans-serif" font-size="14" lengthAdjust="spacing" textLength="149" x="1323.3395" y="218.6636">"twoge-secrets.yml"</text></g><!--entity "postgres-secrets.yml"--><g id="elem_&quot;postgres-secrets.yml&quot;"><rect fill="#F1F1F1" height="46.2969" rx="3.5" ry="3.5" style="stroke:#181818;stroke-width:0.5;" width="208" x="816.8395" y="185.6684"/><rect fill="#F1F1F1" height="10" style="stroke:#181818;stroke-width:0.5;" width="15" x="1004.8395" y="190.6684"/><rect fill="#F1F1F1" height="2" style="stroke:#181818;stroke-width:0.5;" width="4" x="1002.8395" y="192.6684"/><rect fill="#F1F1F1" height="2" style="stroke:#181818;stroke-width:0.5;" width="4" x="1002.8395" y="196.6684"/><text fill="#000000" font-family="sans-serif" font-size="14" lengthAdjust="spacing" textLength="168" x="831.8395" y="218.6636">"postgres-secrets.yml"</text></g><!--entity "quota.yml"--><g id="elem_&quot;quota.yml&quot;"><rect fill="#F1F1F1" height="46.2969" rx="3.5" ry="3.5" style="stroke:#181818;stroke-width:0.5;" width="126" x="604.8395" y="185.6684"/><rect fill="#F1F1F1" height="10" style="stroke:#181818;stroke-width:0.5;" width="15" x="710.8395" y="190.6684"/><rect fill="#F1F1F1" height="2" style="stroke:#181818;stroke-width:0.5;" width="4" x="708.8395" y="192.6684"/><rect fill="#F1F1F1" height="2" style="stroke:#181818;stroke-width:0.5;" width="4" x="708.8395" y="196.6684"/><text fill="#000000" font-family="sans-serif" font-size="14" lengthAdjust="spacing" textLength="86" x="619.8395" y="218.6636">"quota.yml"</text></g><!--entity "Namespace: steve"--><g id="elem_&quot;Namespace: steve&quot;"><rect fill="#F1F1F1" height="46.2969" rx="3.5" ry="3.5" style="stroke:#181818;stroke-width:0.5;" width="186" x="574.8395" y="331.6684"/><rect fill="#F1F1F1" height="10" style="stroke:#181818;stroke-width:0.5;" width="15" x="740.8395" y="336.6684"/><rect fill="#F1F1F1" height="2" style="stroke:#181818;stroke-width:0.5;" width="4" x="738.8395" y="338.6684"/><rect fill="#F1F1F1" height="2" style="stroke:#181818;stroke-width:0.5;" width="4" x="738.8395" y="342.6684"/><text fill="#000000" font-family="sans-serif" font-size="14" lengthAdjust="spacing" textLength="146" x="589.8395" y="364.6636">"Namespace: steve"</text></g><!--entity "AWS EKS Cluster"--><g id="elem_&quot;AWS EKS Cluster&quot;"><rect fill="#F1F1F1" height="46.2969" rx="3.5" ry="3.5" style="stroke:#181818;stroke-width:0.5;" width="174" x="320.8395" y="185.6684"/><rect fill="#F1F1F1" height="10" style="stroke:#181818;stroke-width:0.5;" width="15" x="474.8395" y="190.6684"/><rect fill="#F1F1F1" height="2" style="stroke:#181818;stroke-width:0.5;" width="4" x="472.8395" y="192.6684"/><rect fill="#F1F1F1" height="2" style="stroke:#181818;stroke-width:0.5;" width="4" x="472.8395" y="196.6684"/><text fill="#000000" font-family="sans-serif" font-size="14" lengthAdjust="spacing" textLength="134" x="335.8395" y="218.6636">"AWS EKS Cluster"</text></g><!--link "GitHub Action" to "DockerHub: twoge:latest"--><g id="link_&quot;GitHub Action&quot;_&quot;DockerHub: twoge:latest&quot;"><path d="M149.8395,231.8524 C149.8395,258.8344 149.8395,298.1224 149.8395,325.2214 " fill="none" id="&quot;GitHub Action&quot;-to-&quot;DockerHub: twoge:latest&quot;" style="stroke:#454645;stroke-width:1.0;"/><polygon fill="#454645" points="149.8395,331.2214,153.8395,322.2214,149.8395,326.2214,145.8395,322.2214,149.8395,331.2214" style="stroke:#454645;stroke-width:1.0;"/><text fill="#000000" font-family="sans-serif" font-size="13" font-weight="bold" lengthAdjust="spacing" textLength="116" x="150.8395" y="276.7353">builds &amp; pushes</text></g><!--link "twoge-deployment.yml" to "postgres-deployment.yml"--><g id="link_&quot;twoge-deployment.yml&quot;_&quot;postgres-deployment.yml&quot;"><path d="M1508.1995,377.7764 C1511.4395,408.0684 1516.5922,456.1984 1519.8322,486.5264 " fill="none" id="&quot;twoge-deployment.yml&quot;-to-&quot;postgres-deployment.yml&quot;" style="stroke:#454645;stroke-width:1.0;"/><polygon fill="#454645" points="1520.4695,492.4924,1523.4908,483.1184,1519.9384,487.5207,1515.5361,483.9683,1520.4695,492.4924" style="stroke:#454645;stroke-width:1.0;"/><text fill="#000000" font-family="sans-serif" font-size="13" font-weight="bold" lengthAdjust="spacing" textLength="34" x="1514.8395" y="422.7353">uses</text></g><!--link "twoge-service.yml" to "twoge-deployment.yml"--><g id="link_&quot;twoge-service.yml&quot;_&quot;twoge-deployment.yml&quot;"><path d="M1625.9595,231.8524 C1599.3595,258.8344 1558.9122,299.85 1532.1922,326.949 " fill="none" id="&quot;twoge-service.yml&quot;-to-&quot;twoge-deployment.yml&quot;" style="stroke:#454645;stroke-width:1.0;"/><polygon fill="#454645" points="1527.9795,331.2214,1537.1468,327.6213,1531.4901,327.6611,1531.4502,322.0044,1527.9795,331.2214" style="stroke:#454645;stroke-width:1.0;"/></g><!--link "postgres-service.yml" to "postgres-deployment.yml"--><g id="link_&quot;postgres-service.yml&quot;_&quot;postgres-deployment.yml&quot;"><path d="M1862.9495,231.7314 C1830.2695,273.4174 1754.7495,365.0824 1676.8395,426.6684 C1643.4995,453.0214 1606.7131,473.8253 1574.9431,489.9023 " fill="none" id="&quot;postgres-service.yml&quot;-to-&quot;postgres-deployment.yml&quot;" style="stroke:#454645;stroke-width:1.0;"/><polygon fill="#454645" points="1569.5895,492.6114,1579.426,492.1168,1574.0508,490.3538,1575.8138,484.9787,1569.5895,492.6114" style="stroke:#454645;stroke-width:1.0;"/></g><!--link "pv.yml" to "pvc.yml"--><g id="link_&quot;pv.yml&quot;_&quot;pvc.yml&quot;"><path d="M2094.8395,231.8524 C2094.8395,258.8344 2094.8395,298.1224 2094.8395,325.2214 " fill="none" id="&quot;pv.yml&quot;-to-&quot;pvc.yml&quot;" style="stroke:#454645;stroke-width:1.0;"/><polygon fill="#454645" points="2094.8395,331.2214,2098.8395,322.2214,2094.8395,326.2214,2090.8395,322.2214,2094.8395,331.2214" style="stroke:#454645;stroke-width:1.0;"/><text fill="#000000" font-family="sans-serif" font-size="13" font-weight="bold" lengthAdjust="spacing" textLength="39" x="2095.8395" y="276.7353">binds</text></g><!--link "pvc.yml" to "postgres-deployment.yml"--><g id="link_&quot;pvc.yml&quot;_&quot;postgres-deployment.yml&quot;"><path d="M2039.2095,371.1314 C1937.1595,399.4984 1725.5204,458.3286 1607.9804,491.0006 " fill="none" id="&quot;pvc.yml&quot;-to-&quot;postgres-deployment.yml&quot;" style="stroke:#454645;stroke-width:1.0;"/><polygon fill="#454645" points="1602.1995,492.6074,1611.942,494.051,1607.0169,491.2684,1609.7995,486.3432,1602.1995,492.6074" style="stroke:#454645;stroke-width:1.0;"/><text fill="#000000" font-family="sans-serif" font-size="13" font-weight="bold" lengthAdjust="spacing" textLength="58" x="1894.8395" y="422.7353">mounts</text></g><!--link "twoge-configmap.yml" to "twoge-deployment.yml"--><g id="link_&quot;twoge-configmap.yml&quot;_&quot;twoge-deployment.yml&quot;"><path d="M1218.6995,231.6954 C1282.4995,258.7984 1384.6671,302.1966 1448.4671,329.2976 " fill="none" id="&quot;twoge-configmap.yml&quot;-to-&quot;twoge-deployment.yml&quot;" style="stroke:#454645;stroke-width:1.0;"/><polygon fill="#454645" points="1453.9895,331.6434,1447.2698,324.4431,1449.3875,329.6886,1444.142,331.8063,1453.9895,331.6434" style="stroke:#454645;stroke-width:1.0;"/></g><!--link "twoge-secrets.yml" to "twoge-deployment.yml"--><g id="link_&quot;twoge-secrets.yml&quot;_&quot;twoge-deployment.yml&quot;"><path d="M1418.7095,231.8524 C1438.0095,258.8344 1466.9093,299.242 1486.2893,326.341 " fill="none" id="&quot;twoge-secrets.yml&quot;-to-&quot;twoge-deployment.yml&quot;" style="stroke:#454645;stroke-width:1.0;"/><polygon fill="#454645" points="1489.7795,331.2214,1487.7978,321.574,1486.871,327.1544,1481.2906,326.2277,1489.7795,331.2214" style="stroke:#454645;stroke-width:1.0;"/></g><!--link "postgres-secrets.yml" to "postgres-deployment.yml"--><g id="link_&quot;postgres-secrets.yml&quot;_&quot;postgres-deployment.yml&quot;"><path d="M964.6185,231.8494 C1075.8195,288.1894 1362.8473,433.6096 1473.8673,489.8596 " fill="none" id="&quot;postgres-secrets.yml&quot;-to-&quot;postgres-deployment.yml&quot;" style="stroke:#454645;stroke-width:1.0;"/><polygon fill="#454645" points="1479.2195,492.5714,1472.9991,484.9356,1474.7593,490.3116,1469.3833,492.0719,1479.2195,492.5714" style="stroke:#454645;stroke-width:1.0;"/></g><!--link "quota.yml" to "Namespace: steve"--><g id="link_&quot;quota.yml&quot;_&quot;Namespace: steve&quot;"><path d="M667.8395,231.8524 C667.8395,258.8344 667.8395,298.1224 667.8395,325.2214 " fill="none" id="&quot;quota.yml&quot;-to-&quot;Namespace: steve&quot;" style="stroke:#454645;stroke-width:1.0;"/><polygon fill="#454645" points="667.8395,331.2214,671.8395,322.2214,667.8395,326.2214,663.8395,322.2214,667.8395,331.2214" style="stroke:#454645;stroke-width:1.0;"/><text fill="#000000" font-family="sans-serif" font-size="13" font-weight="bold" lengthAdjust="spacing" textLength="52" x="668.8395" y="276.7353">applies</text></g><!--link "GitHub Action" to "AWS EKS Cluster"--><g id="link_&quot;GitHub Action&quot;_&quot;AWS EKS Cluster&quot;"><path d="M227.5975,208.6684 C256.9755,208.6684 284.5865,208.6684 314.7635,208.6684 " fill="none" id="&quot;GitHub Action&quot;-to-&quot;AWS EKS Cluster&quot;" style="stroke:#454645;stroke-width:1.0;stroke-dasharray:7.0,7.0;"/><polygon fill="#454645" points="320.7635,208.6684,311.7635,204.6684,315.7635,208.6684,311.7635,212.6684,320.7635,208.6684" style="stroke:#454645;stroke-width:1.0;"/><text fill="#000000" font-family="sans-serif" font-size="13" font-weight="bold" lengthAdjust="spacing" textLength="57" x="245.5895" y="201.7353">deploys</text></g><!--SRC=[fPJFReCm3CRlF8N7OGSa-W0S9bNTFsdJj8f9EqmzXE3Ig42onA6gfhxx0fIAZhPhDsx1vkVFdsEkQ845GYKIpKhoF9vBcuB_8EZH9ZvyUU2UZ-qPnfo4BFqPXAbSbU6DYznAlaJjWX7GIcOOvOpGaCk980WIA_BKm3KeQnPeWi3Rx6gCtsEuUufXabj3gBjYYl4bon3y5rQWSIUCmCKhx1BgPwvT4FotkYBSvymiOQnKFwFLtKWAKrIvN1TOqcXTvFviBobbn19c7ErL6ieqnjFddw0MfjguEStRd2K1miQzeyZ6FMiQouRaRVinwafmDCVwDcryh-8PZlHa7IByRiDGA4djPZhKgQfzTCLxxIUYJFlzTv_m2omif2tff8aJMSv5PZMhhxQxgJ5oZNJKKzwa5qnTxcetb8R_hw4C2NyOojHAOWVw_ApVT_3TdW-siVMNAPMB0xTqKo_wyBynqY9RqAW6_bp_bjVATxnl]--></g></svg>